<mxfile host="app.diagrams.net" modified="2021-05-23T23:25:50.081Z" agent="5.0 (Windows NT 10.0; Win64; x64) AppleWebKit/537.36 (KHTML, like Gecko) Chrome/90.0.4430.212 Safari/537.36" etag="Omo6eIzhme1QgouJ8hhP" version="14.7.0" type="github">
  <diagram id="R2lEEEUBdFMjLlhIrx00" name="Page-1">
    <mxGraphModel dx="1278" dy="548" grid="1" gridSize="10" guides="1" tooltips="1" connect="1" arrows="1" fold="1" page="1" pageScale="1" pageWidth="850" pageHeight="1100" math="0" shadow="0" extFonts="Permanent Marker^https://fonts.googleapis.com/css?family=Permanent+Marker">
      <root>
        <mxCell id="0" />
        <mxCell id="1" parent="0" />
        <mxCell id="jOA92sn0OYsqnzbAf2Lg-1" value="Athlete" style="whiteSpace=wrap;html=1;align=center;" parent="1" vertex="1">
          <mxGeometry x="190" y="110" width="100" height="40" as="geometry" />
        </mxCell>
        <mxCell id="jOA92sn0OYsqnzbAf2Lg-3" value="Tournament" style="whiteSpace=wrap;html=1;align=center;" parent="1" vertex="1">
          <mxGeometry x="400" y="320" width="100" height="40" as="geometry" />
        </mxCell>
        <mxCell id="jOA92sn0OYsqnzbAf2Lg-4" value="Year" style="ellipse;whiteSpace=wrap;html=1;align=center;" parent="1" vertex="1">
          <mxGeometry x="560" y="400" width="100" height="40" as="geometry" />
        </mxCell>
        <mxCell id="jOA92sn0OYsqnzbAf2Lg-5" value="Place" style="ellipse;whiteSpace=wrap;html=1;align=center;" parent="1" vertex="1">
          <mxGeometry x="420" y="420" width="100" height="40" as="geometry" />
        </mxCell>
        <mxCell id="jOA92sn0OYsqnzbAf2Lg-6" value="Name" style="ellipse;whiteSpace=wrap;html=1;align=center;" parent="1" vertex="1">
          <mxGeometry x="290" y="410" width="100" height="40" as="geometry" />
        </mxCell>
        <mxCell id="jOA92sn0OYsqnzbAf2Lg-7" value="" style="endArrow=none;html=1;rounded=0;exitX=0.5;exitY=0;exitDx=0;exitDy=0;entryX=0.25;entryY=1;entryDx=0;entryDy=0;" parent="1" source="jOA92sn0OYsqnzbAf2Lg-6" target="jOA92sn0OYsqnzbAf2Lg-3" edge="1">
          <mxGeometry relative="1" as="geometry">
            <mxPoint x="390" y="280" as="sourcePoint" />
            <mxPoint x="380" y="300" as="targetPoint" />
          </mxGeometry>
        </mxCell>
        <mxCell id="jOA92sn0OYsqnzbAf2Lg-8" value="" style="endArrow=none;html=1;rounded=0;entryX=0.5;entryY=0;entryDx=0;entryDy=0;exitX=0.5;exitY=1;exitDx=0;exitDy=0;" parent="1" source="jOA92sn0OYsqnzbAf2Lg-3" target="jOA92sn0OYsqnzbAf2Lg-5" edge="1">
          <mxGeometry relative="1" as="geometry">
            <mxPoint x="390" y="280" as="sourcePoint" />
            <mxPoint x="550" y="280" as="targetPoint" />
          </mxGeometry>
        </mxCell>
        <mxCell id="jOA92sn0OYsqnzbAf2Lg-9" value="" style="endArrow=none;html=1;rounded=0;entryX=0.5;entryY=0;entryDx=0;entryDy=0;exitX=0.75;exitY=1;exitDx=0;exitDy=0;" parent="1" source="jOA92sn0OYsqnzbAf2Lg-3" target="jOA92sn0OYsqnzbAf2Lg-4" edge="1">
          <mxGeometry relative="1" as="geometry">
            <mxPoint x="390" y="280" as="sourcePoint" />
            <mxPoint x="550" y="280" as="targetPoint" />
          </mxGeometry>
        </mxCell>
        <mxCell id="jOA92sn0OYsqnzbAf2Lg-10" value="Full Name" style="ellipse;whiteSpace=wrap;html=1;align=center;" parent="1" vertex="1">
          <mxGeometry x="120" y="10" width="100" height="40" as="geometry" />
        </mxCell>
        <mxCell id="jOA92sn0OYsqnzbAf2Lg-11" value="Nationality" style="ellipse;whiteSpace=wrap;html=1;align=center;" parent="1" vertex="1">
          <mxGeometry x="30" y="90" width="100" height="40" as="geometry" />
        </mxCell>
        <mxCell id="jOA92sn0OYsqnzbAf2Lg-12" value="" style="endArrow=none;html=1;rounded=0;entryX=1;entryY=0.5;entryDx=0;entryDy=0;exitX=0;exitY=0.5;exitDx=0;exitDy=0;" parent="1" source="jOA92sn0OYsqnzbAf2Lg-1" target="jOA92sn0OYsqnzbAf2Lg-11" edge="1">
          <mxGeometry relative="1" as="geometry">
            <mxPoint x="390" y="280" as="sourcePoint" />
            <mxPoint x="550" y="280" as="targetPoint" />
          </mxGeometry>
        </mxCell>
        <mxCell id="jOA92sn0OYsqnzbAf2Lg-13" value="" style="endArrow=none;html=1;rounded=0;entryX=0.5;entryY=1;entryDx=0;entryDy=0;exitX=0.25;exitY=0;exitDx=0;exitDy=0;" parent="1" source="jOA92sn0OYsqnzbAf2Lg-1" target="jOA92sn0OYsqnzbAf2Lg-10" edge="1">
          <mxGeometry relative="1" as="geometry">
            <mxPoint x="240" y="110" as="sourcePoint" />
            <mxPoint x="550" y="280" as="targetPoint" />
          </mxGeometry>
        </mxCell>
        <mxCell id="jOA92sn0OYsqnzbAf2Lg-14" value="&lt;u&gt;Rank&lt;/u&gt;" style="ellipse;whiteSpace=wrap;html=1;align=center;" parent="1" vertex="1">
          <mxGeometry x="50" y="180" width="100" height="40" as="geometry" />
        </mxCell>
        <mxCell id="jOA92sn0OYsqnzbAf2Lg-15" value="" style="endArrow=none;html=1;rounded=0;entryX=0;entryY=1;entryDx=0;entryDy=0;exitX=1;exitY=0;exitDx=0;exitDy=0;" parent="1" source="jOA92sn0OYsqnzbAf2Lg-14" target="jOA92sn0OYsqnzbAf2Lg-1" edge="1">
          <mxGeometry relative="1" as="geometry">
            <mxPoint x="390" y="280" as="sourcePoint" />
            <mxPoint x="550" y="280" as="targetPoint" />
          </mxGeometry>
        </mxCell>
        <mxCell id="Er9mFiBnccDg7se3VX9d-1" value="Matches" style="shape=rhombus;perimeter=rhombusPerimeter;whiteSpace=wrap;html=1;align=center;" vertex="1" parent="1">
          <mxGeometry x="490" y="100" width="120" height="60" as="geometry" />
        </mxCell>
        <mxCell id="Er9mFiBnccDg7se3VX9d-6" value="" style="endArrow=none;html=1;rounded=0;entryX=0.5;entryY=0;entryDx=0;entryDy=0;exitX=1;exitY=0.25;exitDx=0;exitDy=0;" edge="1" parent="1" source="jOA92sn0OYsqnzbAf2Lg-1" target="Er9mFiBnccDg7se3VX9d-1">
          <mxGeometry relative="1" as="geometry">
            <mxPoint x="315" y="120" as="sourcePoint" />
            <mxPoint x="475" y="120" as="targetPoint" />
          </mxGeometry>
        </mxCell>
        <mxCell id="Er9mFiBnccDg7se3VX9d-7" value="Matches1" style="text;html=1;resizable=0;autosize=1;align=center;verticalAlign=middle;points=[];fillColor=none;strokeColor=none;rounded=0;" vertex="1" parent="1">
          <mxGeometry x="375" y="90" width="70" height="20" as="geometry" />
        </mxCell>
        <mxCell id="Er9mFiBnccDg7se3VX9d-8" value="" style="endArrow=none;html=1;rounded=0;entryX=0.5;entryY=1;entryDx=0;entryDy=0;exitX=1;exitY=0.75;exitDx=0;exitDy=0;" edge="1" parent="1" source="jOA92sn0OYsqnzbAf2Lg-1" target="Er9mFiBnccDg7se3VX9d-1">
          <mxGeometry relative="1" as="geometry">
            <mxPoint x="350" y="280" as="sourcePoint" />
            <mxPoint x="510" y="280" as="targetPoint" />
          </mxGeometry>
        </mxCell>
        <mxCell id="Er9mFiBnccDg7se3VX9d-9" value="Matches2" style="text;html=1;resizable=0;autosize=1;align=center;verticalAlign=middle;points=[];fillColor=none;strokeColor=none;rounded=0;" vertex="1" parent="1">
          <mxGeometry x="370" y="160" width="70" height="20" as="geometry" />
        </mxCell>
        <mxCell id="Er9mFiBnccDg7se3VX9d-10" value="Score" style="ellipse;whiteSpace=wrap;html=1;align=center;" vertex="1" parent="1">
          <mxGeometry x="630" y="70" width="100" height="40" as="geometry" />
        </mxCell>
        <mxCell id="Er9mFiBnccDg7se3VX9d-11" value="Date" style="ellipse;whiteSpace=wrap;html=1;align=center;" vertex="1" parent="1">
          <mxGeometry x="630" y="150" width="100" height="40" as="geometry" />
        </mxCell>
        <mxCell id="Er9mFiBnccDg7se3VX9d-12" value="" style="endArrow=none;html=1;rounded=0;exitX=1;exitY=1;exitDx=0;exitDy=0;entryX=0;entryY=0;entryDx=0;entryDy=0;" edge="1" parent="1" source="Er9mFiBnccDg7se3VX9d-1" target="Er9mFiBnccDg7se3VX9d-11">
          <mxGeometry relative="1" as="geometry">
            <mxPoint x="350" y="280" as="sourcePoint" />
            <mxPoint x="510" y="280" as="targetPoint" />
          </mxGeometry>
        </mxCell>
        <mxCell id="Er9mFiBnccDg7se3VX9d-13" value="" style="endArrow=none;html=1;rounded=0;entryX=0;entryY=1;entryDx=0;entryDy=0;exitX=1;exitY=0;exitDx=0;exitDy=0;" edge="1" parent="1" source="Er9mFiBnccDg7se3VX9d-1" target="Er9mFiBnccDg7se3VX9d-10">
          <mxGeometry relative="1" as="geometry">
            <mxPoint x="350" y="280" as="sourcePoint" />
            <mxPoint x="510" y="280" as="targetPoint" />
          </mxGeometry>
        </mxCell>
        <mxCell id="Er9mFiBnccDg7se3VX9d-14" value="Participates" style="shape=rhombus;perimeter=rhombusPerimeter;whiteSpace=wrap;html=1;align=center;" vertex="1" parent="1">
          <mxGeometry x="280" y="220" width="120" height="60" as="geometry" />
        </mxCell>
        <mxCell id="Er9mFiBnccDg7se3VX9d-15" value="" style="endArrow=none;html=1;rounded=0;entryX=0.5;entryY=1;entryDx=0;entryDy=0;exitX=0.337;exitY=0.17;exitDx=0;exitDy=0;exitPerimeter=0;" edge="1" parent="1" source="Er9mFiBnccDg7se3VX9d-14" target="jOA92sn0OYsqnzbAf2Lg-1">
          <mxGeometry relative="1" as="geometry">
            <mxPoint x="350" y="280" as="sourcePoint" />
            <mxPoint x="510" y="280" as="targetPoint" />
          </mxGeometry>
        </mxCell>
        <mxCell id="Er9mFiBnccDg7se3VX9d-16" value="" style="endArrow=none;html=1;rounded=0;entryX=0.5;entryY=0;entryDx=0;entryDy=0;exitX=1;exitY=1;exitDx=0;exitDy=0;" edge="1" parent="1" source="Er9mFiBnccDg7se3VX9d-14" target="jOA92sn0OYsqnzbAf2Lg-3">
          <mxGeometry relative="1" as="geometry">
            <mxPoint x="350" y="280" as="sourcePoint" />
            <mxPoint x="510" y="280" as="targetPoint" />
          </mxGeometry>
        </mxCell>
      </root>
    </mxGraphModel>
  </diagram>
</mxfile>
